<?xml version="1.0" encoding="utf-8"?>
<!-- Generator: Adobe Illustrator 24.2.3, SVG Export Plug-In . SVG Version: 6.00 Build 0)  -->
<svg version="1.1" id="Capa_1" xmlns="http://www.w3.org/2000/svg" xmlns:xlink="http://www.w3.org/1999/xlink" x="0px" y="0px"
	 viewBox="0 0 887.24 360" style="enable-background:new 0 0 887.24 360;" xml:space="preserve">
<style type="text/css">
	.st0{fill:#28519E;}
	.st1{fill:#FFFFFF;stroke:#FFFFFF;stroke-width:7;stroke-linejoin:round;stroke-miterlimit:10;}
	.st2{fill:none;stroke:#28519E;stroke-width:40;stroke-linejoin:round;stroke-miterlimit:10;}
	.st3{fill:#FFFFFF;}
	.st4{fill:none;stroke:#FFFFFF;stroke-width:7;stroke-miterlimit:10;}
	.st5{fill:none;stroke:#28519E;stroke-width:40;stroke-miterlimit:10;}
	.st6{fill:none;stroke:#FFFFFF;stroke-width:7;stroke-linecap:round;stroke-linejoin:round;stroke-miterlimit:10;}
</style>
<g>
	<rect x="0.8" y="-0.39" class="st0" width="887" height="360"/>
</g>
<g>
	<path class="st1" d="M336.06,136.94l-5.87-18.84l-20.23,0.89c-1.81-3.72-3.82-7.3-6.01-10.73l11.95-16.43l-12.7-15.08l-18.65,8.9
		c-2.62-2.29-5.35-4.44-8.17-6.47l5-20.16l-17.4-9.2l-14.14,15.57c-4.01-1.41-8.12-2.55-12.28-3.46l-3.5-20.8l-19.57-1.47
		l-6.83,20.15c-2.93,0.21-5.86,0.54-8.79,1.02l-10.89-18.22l-18.74,5.83l0.99,21.3c-3.16,1.5-6.2,3.14-9.15,4.93l-16.92-12.71
		l-15.11,12.59l8.92,19.2c-2.52,2.78-4.9,5.66-7.09,8.66l-20.31-5.12l-9.08,17.42l15.36,14.13c-1.15,3.19-2.15,6.47-3,9.78
		l-20.39,2.81l-1.93,19.63l19.12,7.17c0.13,4.14,0.49,8.28,1.14,12.44l-17.28,10.38l5.87,18.84l19.94-0.89
		c1.78,3.88,3.74,7.64,5.95,11.21l-11.61,15.94l12.7,15.08l17.59-8.38c2.87,2.58,5.8,5.06,8.91,7.3l-4.67,18.81l17.39,9.21
		l12.93-14.22c4.49,1.66,9.12,3.03,13.82,4.07l3.16,18.84l19.59,1.46l6.11-18.02c3.54-0.21,7.08-0.63,10.64-1.21l9.73,16.3
		l18.75-5.83l-0.89-19.06c3.73-1.74,7.36-3.7,10.82-5.86L286.44,266l15.09-12.53l-8.07-17.44c2.86-3.2,5.53-6.52,8-10.03l18.54,4.69
		l9.1-17.43l-14.36-13.16c1.24-3.55,2.29-7.2,3.16-10.9l19.22-2.64l1.92-19.63l-18.53-6.94c-0.22-4.25-0.74-8.53-1.49-12.8
		L336.06,136.94z M238.82,236.26c-38.3,11.93-79.02-9.45-90.94-47.74c-11.92-38.29,9.45-79,47.75-90.93
		c38.28-11.92,79,9.45,90.93,47.74C298.48,183.63,277.09,224.34,238.82,236.26z"/>
</g>
<path class="st2" d="M339.83,275.16c0,0-19.79,51.38-77.34,44.39c-53.72-6.53-81.71-50.53-132.68-22.06
	c0.55-0.61,20.45-22.59,56.78-16.9C214.32,284.92,300.37,329.44,339.83,275.16z"/>
<path class="st3" d="M339.83,275.16c0,0-19.79,51.38-77.34,44.39c-53.72-6.53-81.71-50.53-132.68-22.06
	c0.55-0.61,20.45-22.59,56.78-16.9C214.32,284.92,300.37,329.44,339.83,275.16z"/>
<path class="st4" d="M339.83,275.16c0,0-19.79,51.38-77.34,44.39c-53.72-6.53-81.71-50.53-132.68-22.06
	c0.55-0.61,20.45-22.59,56.78-16.9C214.32,284.92,300.37,329.44,339.83,275.16z"/>
<path class="st2" d="M267.81,269.93c-27.73-4.34-113.79-48.85-153.25,5.42c0,0,19.8-51.38,77.35-44.39
	c53.71,6.52,81.7,50.54,132.69,22.05C324.59,253.02,304.64,275.69,267.81,269.93z"/>
<path class="st3" d="M267.81,269.93c-27.73-4.34-113.79-48.85-153.25,5.42c0,0,19.8-51.38,77.35-44.39
	c53.71,6.52,81.7,50.54,132.69,22.05C324.59,253.02,304.64,275.69,267.81,269.93z"/>
<path class="st4" d="M267.81,269.93c-27.73-4.34-113.79-48.85-153.25,5.42c0,0,19.8-51.38,77.35-44.39
	c53.71,6.52,81.7,50.54,132.69,22.05C324.59,253.02,304.64,275.69,267.81,269.93z"/>
<polygon class="st5" points="158.76,46.61 235.51,46.61 133.51,148.61 199.43,148.61 36.11,311.93 116.41,193.61 41.78,193.61 "/>
<polygon class="st3" points="158.76,46.61 235.51,46.61 133.51,148.61 199.43,148.61 36.11,311.93 116.41,193.61 41.78,193.61 "/>
<polygon class="st6" points="158.76,46.61 235.51,46.61 133.51,148.61 199.43,148.61 36.11,311.93 116.41,193.61 41.78,193.61 "/>
<g>
	<g>
		<g>
			<path class="st3" d="M479.07,75.11c15.14,0,26,4.05,32.59,12.13c6.58,8.09,9.88,20.07,9.88,35.94v17.27
				c0,15.87-3.29,27.85-9.88,35.94c-6.59,8.09-17.45,12.14-32.59,12.14H397.3v44.8c0,3.42-1.45,5.13-4.35,5.13h-21.33
				c-3.03,0-4.54-1.71-4.54-5.13V82.11c0-4.67,1.98-7,5.93-7H479.07z M397.3,157.72h75.65c6.71,0,11.46-1.71,14.22-5.13
				c2.76-3.42,4.15-8.63,4.15-15.64v-8.87c0-7-1.38-12.21-4.15-15.64c-2.77-3.42-7.51-5.13-14.22-5.13h-73.08
				c-1.71,0-2.57,0.93-2.57,2.8V157.72z"/>
		</g>
		<g>
			<path class="st3" d="M681.71,75.11c3.03,0,4.54,1.71,4.54,5.13v22.17c0,3.42-1.52,5.13-4.54,5.13H595.4
				c-5.13,0-9.38,0.51-12.74,1.52c-3.36,1.01-6.06,2.72-8.1,5.13c-2.04,2.41-3.46,5.68-4.25,9.8c-0.79,4.12-1.18,9.22-1.18,15.29
				v2.33h111.59c2.89,0,4.34,1.71,4.34,5.13v18.44c0,3.42-1.45,5.13-4.34,5.13H569.13v3.97c0,6.07,0.39,11.16,1.18,15.28
				c0.79,4.13,2.2,7.39,4.25,9.8c2.04,2.41,4.74,4.12,8.1,5.13c3.36,1.01,7.6,1.52,12.74,1.52h86.31c3.03,0,4.54,1.71,4.54,5.13
				v22.17c0,3.42-1.52,5.13-4.54,5.13h-86.9c-10.01,0-18.5-1.09-25.48-3.27c-6.98-2.18-12.67-5.72-17.08-10.62
				c-4.41-4.9-7.64-11.28-9.68-19.14c-2.04-7.85-3.06-17.38-3.06-28.59v-40.14c0-11.2,1.02-20.69,3.06-28.47
				c2.04-7.78,5.27-14.12,9.68-19.02c4.41-4.9,10.1-8.48,17.08-10.73c6.98-2.25,15.47-3.38,25.48-3.38H681.71z"/>
		</g>
		<g>
			<path class="st3" d="M851.77,75.11c2.89,0,4.34,1.71,4.34,5.13v22.87c0,3.58-1.45,5.37-4.34,5.37h-87.89
				c-5.14,0-9.38,0.51-12.74,1.52c-3.36,1.01-6.02,2.72-8,5.13c-1.98,2.41-3.39,5.64-4.25,9.68c-0.86,4.05-1.28,9.18-1.28,15.4
				v33.14c0,6.22,0.43,11.4,1.28,15.52c0.86,4.12,2.27,7.39,4.25,9.8c1.97,2.41,4.64,4.12,8,5.13c3.36,1.01,7.6,1.52,12.74,1.52
				h87.89c2.89,0,4.34,1.71,4.34,5.13v22.87c0,3.42-1.45,5.13-4.34,5.13h-89.08c-10.01,0-18.5-1.09-25.48-3.27
				c-6.98-2.18-12.67-5.72-17.08-10.62c-4.41-4.9-7.64-11.28-9.68-19.14c-2.04-7.85-3.06-17.38-3.06-28.59v-40.14
				c0-11.2,1.02-20.69,3.06-28.47c2.04-7.78,5.27-14.12,9.68-19.02c4.41-4.9,10.1-8.48,17.08-10.73c6.98-2.25,15.47-3.38,25.48-3.38
				H851.77z"/>
		</g>
	</g>
</g>
<g>
	<g>
		<g>
			<path class="st3" d="M374.75,283.26h2.71v0.46c0,1.45,0.11,2.51,0.33,3.19c0.22,0.68,0.58,1.17,1.08,1.45
				c0.39,0.22,0.99,0.37,1.81,0.46c0.81,0.09,2.49,0.14,5.04,0.14c1.38,0,2.45-0.09,3.21-0.27c0.76-0.18,1.33-0.47,1.69-0.87
				c0.21-0.22,0.36-0.59,0.46-1.11s0.15-1.23,0.15-2.12c0-1.8-0.18-2.94-0.55-3.4c-0.36-0.46-1.08-0.74-2.16-0.82l-7.48-0.59
				c-2.24-0.17-3.79-0.73-4.64-1.68s-1.29-2.54-1.29-4.78c0-1.41,0.14-2.55,0.42-3.41c0.28-0.86,0.74-1.57,1.37-2.13
				c0.49-0.43,1.17-0.74,2.05-0.92c0.88-0.18,2.43-0.27,4.66-0.27h0.86c2.49,0,4.24,0.12,5.26,0.36c1.02,0.24,1.87,0.65,2.55,1.24
				c0.47,0.39,0.81,0.95,1.03,1.67c0.22,0.72,0.33,1.62,0.33,2.7c0,0.32,0,0.56-0.01,0.73c-0.01,0.17-0.01,0.32-0.02,0.45h-2.71
				v-0.6c0-0.89-0.05-1.57-0.15-2.04c-0.1-0.47-0.27-0.82-0.5-1.05c-0.34-0.34-0.94-0.57-1.8-0.71s-2.5-0.2-4.91-0.2
				c-2.5,0-4.07,0.28-4.71,0.85c-0.64,0.57-0.96,1.69-0.96,3.39c0,1.39,0.21,2.35,0.63,2.88c0.42,0.53,1.23,0.84,2.42,0.94
				l7.63,0.63c2,0.17,3.4,0.73,4.2,1.65c0.8,0.93,1.21,2.48,1.21,4.65c0,1.59-0.1,2.78-0.31,3.58s-0.55,1.46-1.03,2
				c-0.59,0.66-1.38,1.13-2.37,1.39c-0.99,0.27-2.81,0.4-5.43,0.4h-1.21c-2.24,0-3.82-0.11-4.75-0.34c-0.93-0.23-1.7-0.62-2.32-1.19
				c-0.61-0.52-1.06-1.23-1.34-2.12c-0.29-0.89-0.43-2.02-0.43-3.39V283.26z"/>
		</g>
		<g>
			<path class="st3" d="M405.12,291.39c-2.56,0-4.36-0.5-5.38-1.5c-1.02-1-1.53-2.75-1.53-5.26v-4.07c0-2.52,0.51-4.28,1.52-5.28
				c1.02-1,2.8-1.5,5.35-1.5h1.19c2.56,0,4.36,0.5,5.38,1.5c1.02,1,1.53,2.76,1.53,5.28v4.07c0,2.52-0.51,4.28-1.52,5.27
				c-1.02,0.99-2.8,1.49-5.35,1.49H405.12z M410.57,284.06v-2.93c0-2.16-0.27-3.54-0.82-4.13c-0.55-0.59-1.7-0.89-3.46-0.89h-1.19
				c-1.75,0-2.89,0.29-3.43,0.88c-0.54,0.59-0.81,1.97-0.81,4.14v2.93c0,2.18,0.27,3.57,0.81,4.16c0.54,0.59,1.68,0.88,3.42,0.88
				h1.19c1.75,0,2.9-0.3,3.45-0.9S410.57,286.22,410.57,284.06z"/>
		</g>
		<g>
			<path class="st3" d="M417.77,291.16V266.9h2.53v24.26H417.77z"/>
		</g>
		<g>
			<path class="st3" d="M439.56,274.01v17.16h-2.44v-2.33c-0.4,0.87-1.06,1.51-1.99,1.93c-0.92,0.42-2.14,0.63-3.65,0.63
				c-2.24,0-3.81-0.45-4.71-1.36c-0.9-0.91-1.35-2.5-1.35-4.77v-11.26h2.53v10.72c0,1.78,0.27,2.96,0.8,3.52
				c0.53,0.57,1.57,0.85,3.11,0.85c1.78,0,3.08-0.41,3.9-1.22c0.82-0.81,1.23-2.11,1.23-3.88v-9.99H439.56z"/>
		</g>
		<g>
			<path class="st3" d="M451.01,291.39c-2.56,0-4.36-0.5-5.38-1.5c-1.02-1-1.53-2.75-1.53-5.26v-4.07c0-2.52,0.51-4.28,1.52-5.28
				c1.02-1,2.8-1.5,5.35-1.5h1.19c2.42,0,4.17,0.46,5.24,1.39c1.07,0.93,1.63,2.45,1.67,4.57l-2.62,0.02
				c-0.05-1.39-0.37-2.35-0.95-2.87c-0.58-0.52-1.69-0.78-3.34-0.78h-1.19c-1.75,0-2.89,0.29-3.43,0.88
				c-0.54,0.59-0.81,1.97-0.81,4.14v2.93c0,2.18,0.27,3.57,0.81,4.16c0.54,0.59,1.68,0.88,3.42,0.88h1.19c1.67,0,2.81-0.29,3.4-0.86
				s0.89-1.61,0.89-3.12v-0.29h2.62v0.33c0,2.24-0.53,3.84-1.59,4.8c-1.06,0.96-2.82,1.44-5.29,1.44H451.01z"/>
		</g>
		<g>
			<path class="st3" d="M463.66,269.77v-2.87h2.53v2.87H463.66z M463.66,291.16v-17.16h2.53v17.16H463.66z"/>
		</g>
		<g>
			<path class="st3" d="M477.67,291.39c-2.56,0-4.36-0.5-5.38-1.5c-1.02-1-1.53-2.75-1.53-5.26v-4.07c0-2.52,0.51-4.28,1.52-5.28
				c1.02-1,2.8-1.5,5.35-1.5h1.19c2.56,0,4.36,0.5,5.38,1.5c1.02,1,1.53,2.76,1.53,5.28v4.07c0,2.52-0.51,4.28-1.52,5.27
				c-1.02,0.99-2.8,1.49-5.35,1.49H477.67z M483.11,284.06v-2.93c0-2.16-0.27-3.54-0.82-4.13c-0.55-0.59-1.7-0.89-3.46-0.89h-1.19
				c-1.75,0-2.89,0.29-3.43,0.88c-0.54,0.59-0.81,1.97-0.81,4.14v2.93c0,2.18,0.27,3.57,0.81,4.16c0.54,0.59,1.68,0.88,3.42,0.88
				h1.19c1.75,0,2.9-0.3,3.45-0.9C482.84,287.6,483.11,286.22,483.11,284.06z"/>
		</g>
		<g>
			<path class="st3" d="M490.32,291.16v-17.16h2.43v2.35c0.41-0.88,1.08-1.53,1.99-1.95c0.91-0.42,2.12-0.63,3.62-0.63
				c2.25,0,3.82,0.45,4.73,1.36c0.9,0.91,1.35,2.5,1.35,4.78v11.24h-2.54v-10.71c0-1.79-0.26-2.97-0.79-3.54
				c-0.53-0.57-1.55-0.85-3.07-0.85c-1.79,0-3.1,0.41-3.94,1.23s-1.25,2.12-1.25,3.89v9.97H490.32z"/>
		</g>
		<g>
			<path class="st3" d="M515.76,291.39c-2.56,0-4.36-0.5-5.38-1.5c-1.02-1-1.53-2.75-1.53-5.26v-4.07c0-2.52,0.51-4.28,1.52-5.28
				c1.02-1,2.8-1.5,5.35-1.5h1.19c2.56,0,4.36,0.5,5.38,1.5c1.02,1,1.53,2.76,1.53,5.28v2.59l-12.34,0.02
				c-0.01,0.17-0.02,0.37-0.02,0.58c0,0.21-0.01,0.51-0.01,0.89c0,1.77,0.28,2.96,0.85,3.56c0.56,0.6,1.71,0.9,3.42,0.9h1.19
				c1.53,0,2.6-0.22,3.19-0.66c0.6-0.44,0.95-1.21,1.04-2.31h2.64c-0.13,1.86-0.73,3.2-1.79,4.02c-1.06,0.83-2.75,1.24-5.05,1.24
				H515.76z M511.49,280.91h9.71v-0.67c0-1.61-0.29-2.7-0.86-3.28c-0.58-0.58-1.72-0.86-3.42-0.86h-1.19c-1.7,0-2.83,0.29-3.39,0.86
				c-0.57,0.58-0.85,1.67-0.85,3.28V280.91z"/>
		</g>
		<g>
			<path class="st3" d="M527.77,286.06h2.58v0.39c0,1.05,0.33,1.78,0.98,2.18s1.96,0.59,3.93,0.59c2.21,0,3.56-0.2,4.07-0.6
				s0.77-1.18,0.77-2.33c0-1.12-0.21-1.87-0.63-2.24s-1.46-0.61-3.14-0.69c-0.62-0.03-1.46-0.07-2.51-0.1
				c-2.3-0.07-3.67-0.22-4.11-0.47c-0.65-0.36-1.12-0.85-1.39-1.47c-0.28-0.62-0.42-1.51-0.42-2.67c0-1.9,0.48-3.19,1.45-3.86
				s3.1-1.01,6.39-1.01c2.55,0,4.28,0.32,5.19,0.96c0.91,0.64,1.36,1.76,1.36,3.37h-2.54v-0.16c0-0.76-0.33-1.28-0.99-1.57
				c-0.66-0.29-1.96-0.43-3.92-0.43c-1.89,0-3.1,0.17-3.62,0.52c-0.52,0.35-0.78,1.08-0.78,2.18c0,0.67,0.05,1.15,0.15,1.42
				s0.27,0.48,0.52,0.62c0.51,0.27,1.64,0.43,3.39,0.47c0.45,0.01,0.79,0.02,1.03,0.03c1.43,0.05,2.56,0.13,3.37,0.22
				c0.82,0.09,1.4,0.22,1.74,0.38c0.76,0.35,1.3,0.85,1.62,1.5c0.32,0.65,0.48,1.6,0.48,2.84c0,1.26-0.16,2.22-0.47,2.87
				c-0.32,0.65-0.88,1.23-1.7,1.73c-0.37,0.24-0.97,0.41-1.81,0.51c-0.84,0.1-2,0.16-3.49,0.16c-3.04,0-5.05-0.35-6.04-1.05
				c-0.98-0.7-1.47-1.97-1.47-3.82V286.06z"/>
		</g>
		<g>
			<path class="st3" d="M565.34,291.39c-2.56,0-4.36-0.5-5.38-1.5c-1.02-1-1.53-2.75-1.53-5.26v-4.07c0-2.52,0.51-4.28,1.52-5.28
				c1.02-1,2.8-1.5,5.35-1.5h1.19c2.56,0,4.36,0.5,5.38,1.5c1.02,1,1.53,2.76,1.53,5.28v2.59l-12.34,0.02
				c-0.01,0.17-0.02,0.37-0.02,0.58c0,0.21-0.01,0.51-0.01,0.89c0,1.77,0.28,2.96,0.85,3.56c0.56,0.6,1.71,0.9,3.42,0.9h1.19
				c1.53,0,2.6-0.22,3.19-0.66c0.6-0.44,0.95-1.21,1.04-2.31h2.64c-0.13,1.86-0.73,3.2-1.79,4.02c-1.06,0.83-2.75,1.24-5.05,1.24
				H565.34z M561.07,280.91h9.71v-0.67c0-1.61-0.29-2.7-0.86-3.28c-0.58-0.58-1.72-0.86-3.42-0.86h-1.19c-1.7,0-2.83,0.29-3.39,0.86
				c-0.57,0.58-0.85,1.67-0.85,3.28V280.91z"/>
		</g>
		<g>
			<path class="st3" d="M577.99,291.16v-17.16h2.43v2.35c0.41-0.88,1.08-1.53,1.99-1.95c0.91-0.42,2.12-0.63,3.62-0.63
				c2.25,0,3.82,0.45,4.73,1.36c0.9,0.91,1.35,2.5,1.35,4.78v11.24h-2.54v-10.71c0-1.79-0.26-2.97-0.79-3.54
				c-0.53-0.57-1.55-0.85-3.07-0.85c-1.79,0-3.1,0.41-3.93,1.23s-1.25,2.12-1.25,3.89v9.97H577.99z"/>
		</g>
		<g>
			<path class="st3" d="M608.85,291.16v-17.16h2.48v2.35c0.36-0.88,0.96-1.53,1.8-1.95c0.84-0.42,1.95-0.63,3.33-0.63
				c1.46,0,2.59,0.22,3.41,0.67s1.43,1.17,1.83,2.17c0.5-1,1.16-1.72,1.98-2.17s1.89-0.67,3.22-0.67c2.25,0,3.81,0.45,4.68,1.34
				c0.87,0.89,1.3,2.49,1.3,4.81v11.24h-2.54v-10.45c0-1.91-0.25-3.16-0.74-3.76c-0.49-0.59-1.46-0.89-2.89-0.89
				c-1.59,0-2.74,0.4-3.46,1.21c-0.72,0.81-1.08,2.11-1.08,3.9v9.97h-2.46v-11.62c0-1.36-0.25-2.28-0.74-2.75
				c-0.49-0.48-1.44-0.72-2.83-0.72c-1.63,0-2.83,0.41-3.59,1.24c-0.77,0.83-1.15,2.12-1.15,3.88v9.97H608.85z"/>
		</g>
		<g>
			<path class="st3" d="M649.33,289.36c-0.39,0.72-1.01,1.24-1.87,1.56s-2.03,0.48-3.54,0.48c-2.68,0-4.48-0.38-5.39-1.15
				c-0.91-0.77-1.37-2.19-1.37-4.28c0-1.21,0.11-2.15,0.32-2.84s0.56-1.23,1.05-1.65c0.41-0.35,1.02-0.59,1.82-0.74
				c0.8-0.15,1.95-0.22,3.45-0.22c1.55,0,2.74,0.13,3.56,0.38c0.82,0.25,1.44,0.68,1.85,1.28v-2.97c0-1.4-0.27-2.31-0.81-2.72
				c-0.54-0.41-1.91-0.62-4.09-0.62c-1.59,0-2.64,0.17-3.16,0.5c-0.52,0.33-0.79,0.95-0.81,1.87h-2.53v-0.39
				c0-1.47,0.48-2.51,1.43-3.14c0.95-0.63,2.59-0.94,4.91-0.94c1.81,0,3.19,0.08,4.14,0.23s1.65,0.4,2.1,0.73
				c0.5,0.39,0.85,0.87,1.06,1.45c0.21,0.58,0.31,1.56,0.31,2.97v12.01h-2.31L649.33,289.36z M649.2,286.8v-1.81
				c0-0.82-0.42-1.41-1.25-1.79c-0.83-0.38-2.15-0.57-3.97-0.57c-1.66,0-2.77,0.21-3.33,0.63c-0.56,0.42-0.84,1.22-0.84,2.4
				c0,1.35,0.3,2.25,0.89,2.7c0.59,0.45,1.78,0.68,3.56,0.68c1.6,0,2.82-0.19,3.67-0.58C648.78,288.07,649.2,287.51,649.2,286.8z"/>
		</g>
		<g>
			<path class="st3" d="M656.85,291.16v-17.16h2.43v2.35c0.41-0.88,1.08-1.53,1.99-1.95c0.91-0.42,2.12-0.63,3.62-0.63
				c2.25,0,3.82,0.45,4.73,1.36c0.9,0.91,1.35,2.5,1.35,4.78v11.24h-2.54v-10.71c0-1.79-0.26-2.97-0.79-3.54
				c-0.53-0.57-1.55-0.85-3.07-0.85c-1.79,0-3.1,0.41-3.93,1.23s-1.25,2.12-1.25,3.89v9.97H656.85z"/>
		</g>
		<g>
			<path class="st3" d="M674.36,276.17v-2.17h2.1v-3.86h2.54v3.86h8.41v2.17h-8.41v9.45c0,1.35,0.22,2.26,0.66,2.75
				c0.44,0.48,1.28,0.73,2.52,0.73c1.23,0,2.06-0.23,2.48-0.7c0.43-0.47,0.64-1.39,0.64-2.77v-0.5h2.57v0.15
				c0,2.41-0.4,4.04-1.2,4.87c-0.8,0.84-2.46,1.25-4.98,1.25c-1.97,0-3.33-0.44-4.1-1.33c-0.77-0.89-1.15-2.49-1.15-4.8v-9.09
				H674.36z"/>
		</g>
		<g>
			<path class="st3" d="M698.74,291.39c-2.56,0-4.36-0.5-5.38-1.5c-1.02-1-1.53-2.75-1.53-5.26v-4.07c0-2.52,0.51-4.28,1.52-5.28
				c1.02-1,2.8-1.5,5.35-1.5h1.19c2.56,0,4.36,0.5,5.38,1.5c1.02,1,1.53,2.76,1.53,5.28v2.59l-12.34,0.02
				c-0.01,0.17-0.02,0.37-0.02,0.58c-0.01,0.21-0.01,0.51-0.01,0.89c0,1.77,0.28,2.96,0.85,3.56c0.56,0.6,1.71,0.9,3.42,0.9h1.19
				c1.53,0,2.6-0.22,3.19-0.66c0.6-0.44,0.95-1.21,1.04-2.31h2.64c-0.13,1.86-0.73,3.2-1.79,4.02c-1.06,0.83-2.75,1.24-5.05,1.24
				H698.74z M694.47,280.91h9.71v-0.67c0-1.61-0.29-2.7-0.86-3.28c-0.58-0.58-1.72-0.86-3.42-0.86h-1.19
				c-1.69,0-2.82,0.29-3.39,0.86c-0.56,0.58-0.85,1.67-0.85,3.28V280.91z"/>
		</g>
		<g>
			<path class="st3" d="M711.39,291.16v-17.16h2.43v2.35c0.41-0.88,1.08-1.53,1.99-1.95c0.91-0.42,2.12-0.63,3.62-0.63
				c2.25,0,3.82,0.45,4.73,1.36c0.9,0.91,1.35,2.5,1.35,4.78v11.24h-2.54v-10.71c0-1.79-0.26-2.97-0.79-3.54
				c-0.53-0.57-1.55-0.85-3.07-0.85c-1.79,0-3.1,0.41-3.94,1.23s-1.25,2.12-1.25,3.89v9.97H711.39z"/>
		</g>
		<g>
			<path class="st3" d="M730.62,269.77v-2.87h2.53v2.87H730.62z M730.62,291.16v-17.16h2.53v17.16H730.62z"/>
		</g>
		<g>
			<path class="st3" d="M738.78,291.16v-17.16h2.48v2.35c0.36-0.88,0.96-1.53,1.8-1.95c0.84-0.42,1.95-0.63,3.33-0.63
				c1.46,0,2.59,0.22,3.41,0.67s1.43,1.17,1.83,2.17c0.5-1,1.16-1.72,1.98-2.17s1.89-0.67,3.22-0.67c2.25,0,3.81,0.45,4.68,1.34
				c0.87,0.89,1.3,2.49,1.3,4.81v11.24h-2.54v-10.45c0-1.91-0.25-3.16-0.74-3.76c-0.49-0.59-1.46-0.89-2.89-0.89
				c-1.59,0-2.74,0.4-3.46,1.21s-1.08,2.11-1.08,3.9v9.97h-2.46v-11.62c0-1.36-0.25-2.28-0.74-2.75c-0.5-0.48-1.44-0.72-2.83-0.72
				c-1.63,0-2.83,0.41-3.59,1.24c-0.77,0.83-1.15,2.12-1.15,3.88v9.97H738.78z"/>
		</g>
		<g>
			<path class="st3" d="M767.92,269.77v-2.87h2.53v2.87H767.92z M767.92,291.16v-17.16h2.53v17.16H767.92z"/>
		</g>
		<g>
			<path class="st3" d="M781.93,291.39c-2.56,0-4.36-0.5-5.38-1.5c-1.02-1-1.53-2.75-1.53-5.26v-4.07c0-2.52,0.51-4.28,1.52-5.28
				c1.02-1,2.8-1.5,5.35-1.5h1.19c2.56,0,4.36,0.5,5.38,1.5c1.02,1,1.53,2.76,1.53,5.28v2.59l-12.34,0.02
				c-0.01,0.17-0.02,0.37-0.02,0.58c-0.01,0.21-0.01,0.51-0.01,0.89c0,1.77,0.28,2.96,0.85,3.56c0.57,0.6,1.71,0.9,3.42,0.9h1.19
				c1.53,0,2.6-0.22,3.19-0.66c0.6-0.44,0.95-1.21,1.04-2.31h2.64c-0.13,1.86-0.73,3.2-1.79,4.02c-1.06,0.83-2.75,1.24-5.05,1.24
				H781.93z M777.66,280.91h9.71v-0.67c0-1.61-0.29-2.7-0.86-3.28c-0.58-0.58-1.72-0.86-3.42-0.86h-1.19c-1.7,0-2.83,0.29-3.39,0.86
				c-0.57,0.58-0.85,1.67-0.85,3.28V280.91z"/>
		</g>
		<g>
			<path class="st3" d="M794.58,291.16v-17.16h2.43v2.35c0.41-0.88,1.08-1.53,1.99-1.95c0.91-0.42,2.12-0.63,3.62-0.63
				c2.25,0,3.82,0.45,4.73,1.36c0.9,0.91,1.35,2.5,1.35,4.78v11.24h-2.54v-10.71c0-1.79-0.26-2.97-0.79-3.54
				c-0.53-0.57-1.55-0.85-3.07-0.85c-1.79,0-3.1,0.41-3.94,1.23s-1.25,2.12-1.25,3.89v9.97H794.58z"/>
		</g>
		<g>
			<path class="st3" d="M812.1,276.17v-2.17h2.1v-3.86h2.54v3.86h8.41v2.17h-8.41v9.45c0,1.35,0.22,2.26,0.66,2.75
				c0.44,0.48,1.28,0.73,2.52,0.73c1.23,0,2.06-0.23,2.49-0.7c0.43-0.47,0.64-1.39,0.64-2.77v-0.5h2.57v0.15
				c0,2.41-0.4,4.04-1.2,4.87c-0.8,0.84-2.46,1.25-4.98,1.25c-1.97,0-3.33-0.44-4.1-1.33c-0.77-0.89-1.15-2.49-1.15-4.8v-9.09H812.1
				z"/>
		</g>
		<g>
			<path class="st3" d="M836.47,291.39c-2.56,0-4.36-0.5-5.38-1.5c-1.02-1-1.53-2.75-1.53-5.26v-4.07c0-2.52,0.51-4.28,1.52-5.28
				c1.02-1,2.8-1.5,5.35-1.5h1.19c2.56,0,4.36,0.5,5.38,1.5c1.02,1,1.53,2.76,1.53,5.28v4.07c0,2.52-0.51,4.28-1.52,5.27
				c-1.02,0.99-2.8,1.49-5.35,1.49H836.47z M841.92,284.06v-2.93c0-2.16-0.27-3.54-0.82-4.13c-0.55-0.59-1.7-0.89-3.46-0.89h-1.19
				c-1.75,0-2.89,0.29-3.43,0.88c-0.54,0.59-0.81,1.97-0.81,4.14v2.93c0,2.18,0.27,3.57,0.81,4.16c0.54,0.59,1.68,0.88,3.42,0.88
				h1.19c1.75,0,2.9-0.3,3.45-0.9C841.64,287.6,841.92,286.22,841.92,284.06z"/>
		</g>
	</g>
</g>
</svg>
